<?xml version="1.0" encoding="utf-8"?>
<!-- Generator: Adobe Illustrator 26.3.1, SVG Export Plug-In . SVG Version: 6.00 Build 0)  -->
<svg version="1.1" id="Layer_1" xmlns="http://www.w3.org/2000/svg" xmlns:xlink="http://www.w3.org/1999/xlink" x="0px" y="0px"
	 viewBox="0 0 150 150" style="enable-background:new 0 0 150 150;" xml:space="preserve">
<style type="text/css">
	.st0{fill:#151515;}
</style>
<g id="hoof">
	<g>
		<path class="st0" d="M-164.2,4.3L-164.2,4.3L-164.2,4.3 M3.3,10.8L3.3,10.8L3.3,10.8 M-146.7,27.9L-146.7,27.9L-146.7,27.9
			 M119.6,45.1L119.6,45.1L119.6,45.1 M138.7,46.8L138.7,46.8L138.7,46.8 M-96.3-6.2c-6.5,0-13.1,1-19.5,3
			c-6.2,1.7-9.9,2.8-13.5,6.1c-2.5,2.2-3.2,3.8-6.1,5.2c-1.9,0.9-4.8,1.2-9.9,1.5c-2.8,0.1-4.8,0.3-6.2,0.3c-1.2,0-2.2-0.1-2.8-0.3
			c-3.9-1.6-3.6-4.4-7.6-6.1c-1.5-0.6-3-0.9-4.4-0.9c-2.9,0-5.4,1-5.4,1.6c0,0.4,1.3,0.4,3.9,1.9c1.7,1,3.5,2.2,5.1,3.6
			c3.5,2.8,2.9,2.6,4.1,3.3c2,1,4.2,1.6,6.5,1.6c0.4,0,1,0,1.5-0.1c2.9-0.1,4.6-0.9,6-0.9c0.6,0,1,0.1,1.6,0.6
			c0.7,0.6,1.2,1.5,1.2,2.5c-0.1,1.2-1.6,1.9-3.2,2.6c-2.3,1-4.6,2.3-6.8,3.8c-2.2,1.9-1.3,3-4.5,9c-0.9,2-2.2,3.8-3.6,5.5
			c-1.9,1.9-4.2,2.9-8.9,4.9c-6.2,2.6-6.8,2-9.6,3.9c-1.2,0.9-2.5,1.5-3.9,1.9c-1.3,0.4-2.6,0.6-3.9,0.6c-0.1,0-0.4,0-0.6,0
			c-0.6,0-1,0-1.6,0c-7,0-9.4,0.7-11.6,0.7c-1,0-1.9-0.1-3-0.6c-0.9-0.4-1.9-0.6-2.8-0.6c-0.6,0-1.2,0.1-1.7,0.3
			c-1,0.4-1.9,1-2.6,1.9c-1.9,2.3-3.6,4.8-4.9,7.6c-2.3,4.1-5.8,7.6-10,9.9c-0.7,0.4-6.4,3.3-7.8,5.5c-0.3,0.6-0.6,1.2-0.7,1.9
			c-0.1,1.2,0.1,1.5,0,2.3c0,0.3-0.3,1-2.8,2.9c-2.2,1.7-2.9,1.7-3.2,2.8c-0.1,0.9-0.1,1.7,0,2.5c0,1.6,0.1,1.9,0.4,2
			c0.3,0.1,0.6,0.3,0.9,0.3c0.7,0,1.7-0.4,1.7-0.4c1.3-0.7,2.2-1.7,2.8-3c0.1-0.1,2.3-2.6,7-7.4c15.7-17.1,18.7-18.4,19.7-20.3
			c0.3-0.6,0.7-1,1.3-1.2c0,0,0,0,0.1,0c0.6,0,1.3,0.3,1.7,0.7c0.9,0.7,1.9,0.9,3.3,0.9c1.2,0,2.6-0.1,4.2-0.3
			c8.9-0.7,8.7,0.1,12.6-0.9c2-0.6,3.9-1.2,5.8-2c2.6-1.5,5.4-2.5,8.3-3.2c0.9-0.1,1.6-0.3,2-0.3c0.7,0,1.2,0.1,1.6,0.6
			c0.6,0.7,0.7,1.9,0.4,2.8c-0.6,1.2-1.6,1.9-2.8,2.3c-5.7,2.2-21.8,7.4-22.2,7.6c-1.3,0.4-2.6,0.9-3.9,1.6
			c-1.3,0.7-1.5,1.2-2.5,1.5c-0.4,0.1-1,0.1-1.5,0.1c-0.9,0-1.6-0.1-2.3-0.4c-0.9-0.3-1.2-0.6-1.7-0.6c-0.7,0.1-1.6,0.4-2,1
			c-1.7,1.6-3,3.3-4.2,5.4c-3.3,7-11,12.2-11.5,12.5c-1.7,0.9-3,2.2-3.9,3.9c-0.4,1.3-0.9,2.8-1.5,4.1c-0.6,1-0.9,1.2-1.7,2.8
			c-0.6,1-0.6,1.3-1.3,2.5c-0.6,1.5-1.5,2.9-2.3,4.2c-1.3,1.6-2.3,1.7-2.8,3.2c-0.1,0.6-0.3,1.2-0.3,1.7c-0.1,0.9,0,1.6,0.3,2.3
			c0.3,0.7,0.7,1.2,1.5,1.5c0.3,0,0.4,0.1,0.7,0.1c0.9,0,1.7-0.3,2.3-1c0.7-0.6,1.2-1.5,1.5-2.3c0.6-1.2,1-2.3,1.5-3.5
			c1.3-3.5,3-6.8,5.1-9.9c1.6-2.2,3.2-4.2,5.1-6.1c10.6-12.2,11.2-10.7,14.5-14.1c0.4-0.6,1-0.9,1.7-1.2c0.4-0.1,0.7-0.1,1.2-0.1
			c0.3,0,0.4,0,0.7,0c0.1,0,0.3,0,0.4,0c2.3,0,5.8-2.2,6.4-2.5c7.4-4.4,36.7-10.5,44.3-10.5h0.1c0.1,0,0.3,0,0.4,0
			c1.6,0,3.2-0.1,4.9-0.1c0.9,0,1.5,0,2,0c0.9,0,1.5-0.1,2.2-0.4c1.2-0.6,1.3-1.3,2.8-2.8c1.3-1.3,2.9-2.6,4.5-3.5
			c1.6-1,3.5-1.6,5.2-1.7c0.1,0,0.3,0,0.3,0c2.5,0,4.9,0.7,7,2.2c6.8,3.9,10.2,5.8,13.4,8.6c7.4,6.5,17,8.1,26.3,9.6
			c4.1,0.6,8,0.9,12.1,0.9c9,0,17.9-1.5,26.4-4.4c4.4-1.6,8.9-3,13.4-4.2c3.5-0.7,9-1.2,20-2c0.4,0,2.3-0.1,4.6-0.1
			c3.6,0,8.4,0.3,12.2,1.6c1.6,0.4,2.9,1.3,3.9,2.6c1,1.6,0.4,2.5,1.5,5.1c0.6,1.6,1.5,3,2.8,4.2c1.3,1,3,1.7,4.6,2
			c0.9,0.1,1.6,0.1,2.2,0.1c1.2,0,2.2-0.1,3.2-0.1c0.9,0,1.7,0.1,2.8,0.6c0.7,0.3,1.5,0.7,2.2,1.2c2.3,1.5,4.4,3.3,5.8,5.7
			c2.9,4.4,8,7.3,16,16c13.5,14.7,24.5,34,25,35.9c0.1,0.4,0.4,0.9,0.7,1.3c0.1,0.1,0.6,0.4,1.6,0.4c0.6,0,1,0,1.5,0
			c0.7,0,1.2-0.1,1.5-0.4c0.3-0.4,0.4-0.9,0.4-1.5c-0.1-0.7-0.4-1.3-0.9-1.7c-3.6-3.8-5.2-9.1-8.4-13.5
			c-13.4-18.2-15-21.2-21.3-27.6c-1.9-2.2-4.1-4.2-6.2-6c-0.6-0.3-1-0.9-1.3-1.5c-0.3-0.6-0.3-1.5,0.1-2c0.4-0.3,0.9-0.6,1.5-0.6
			c0.1,0,0.1,0,0.3,0c1.9,0.3,3.6,1.2,4.9,2.5c11.6,11.9,17.4,17.9,19.3,20.5c0,0,5.1,7,14.5,22.1c0.6,0.9,1.2,1.7,1.7,2.8
			c0.3,0.9,0.7,1.6,1.3,2.2c0.3,0.3,0.7,0.6,1.2,0.7c0.6,0.4,1.5,0.7,2.2,0.7c0.1,0,0.4,0,0.6,0c1.2-0.4,1.5-2.3,1.5-3.3
			c-0.1-0.9-0.4-1.7-1-2.5c-0.4-0.6-1-1.2-1.7-1.5c-2.8-1.6-6.2-9-7.6-11.6c-0.4-0.9-2.5-3.9-6.7-10.3c-6.4-9.3-14.1-17.7-22.8-25
			c-8.3-7.1-17-12.8-19.2-13.2c-0.7-0.1-1.5-0.4-2-1c-0.6-0.6-0.9-1.3-1-2.2c0-1.3,1-2.2,2.8-3.3c1.5-1.3,3-2.2,4.9-2.8
			c1.2-0.3,2.2-0.4,3.3-0.4c1.2,0,2.3,0.1,3.3,0.4c8.4,1.9,8.6,0.3,23.1,3.6C87,65.7,91,68.3,96,69.5c1.2,0.3,2.3,0.7,3.3,1.5
			c1,0.6,1.9,1.5,2.6,2.3c0.7,1.3,1.3,2.6,1.6,4.1c0.3,1.2,0.3,1.3,0.6,2c0.6,1.7,1.7,3.2,3.2,4.4c15,12.5,22.7,16.4,25,19.5
			c0.3,0.3,2.9,3,4.5,3.5c0.3,0,0.6,0.1,0.9,0.1c0.4,0,0.9,0,1.2-0.1c1.5-0.4,0.7-0.4,1.6-1.5c0.9-1,0.4-0.4,0.9-1.7
			c0.3-1,0.7-0.4,0.1-2.2c-0.4-1.5-0.6-1.3-1.9-2.3c-1-0.6-1.9-1.6-2.3-2.6c-0.7-1.6-1.5-2.9-2.3-4.6s-1-1.6-2.5-4.6
			c-1-2.3-2.2-4.1-2.3-4.4c-2.6-4.4-0.4-6.4-2.6-10c-1.5-2.2-3.3-4.2-5.2-6c-1.2-1-2-1.7-2.2-3c-0.1-1.9,1.7-3.3,2.3-3.9
			c1.3-0.9,2.6-1.6,4.2-2c1.5-0.6,2.9-3,5.4-6c1.9-2.3,2.8-4.4,5.1-6.8c0.6-0.6,2.9-1.6,2.5-2.8c-0.1-1-0.9-1.7-1.9-2.2
			c-0.1,0-0.3,0-0.4,0c-0.4,0-1.2,0.1-2.3,0.9c-1.5,1-2.8,2.5-3.8,4.1c-2,2.6-3,4.4-3.5,4.4l0,0c-0.4-0.1,0.1-1.3-0.6-2.3
			c-0.4-0.6-1.2-0.7-1.7-0.7c-0.3,0-0.6,0-0.9,0.1c-1.2,0.6-1.3,2.2-1.5,3.2c-0.1,1.7,0.4,2.2,0.1,3.2c-0.6,1.5-2.5,2.6-3.9,2.6
			c-0.4,0-0.7-0.1-1-0.3c-0.3-0.1-0.4-0.4-0.7-1.6c-0.6-1.7-0.9-3.5-0.9-5.2c0-2,0.6-2.8,0-3.9c-0.3-0.6-0.7-1.2-1.5-1.3
			c-0.1,0-0.3,0-0.4,0c-0.6,0-1.2,0.3-1.5,0.7c-0.7,0.7-0.1,1.7-0.6,2c0,0,0,0-0.1,0c-0.6,0-1.6-1.6-2.5-2.8c-1.6-2.3-3.6-4.5-6-6.1
			c-1-0.7-2.3-1.6-3.5-1.6c-0.3,0-0.6,0-0.9,0.1c-0.6,0.3-1,0.9-1.2,1.5c-0.4,1.3,1.2,1.7,2.2,2.5c1.2,0.9,2.3,1.9,3.3,2.9
			c1.7,1.5,3.3,3.2,4.6,4.9c1,1.3,1.9,2.8,2.3,4.4c0.9,2,1.6,2.8,1.3,3.5c-0.4,1.2-2.3,1.5-5.4,1.5c0.3-0.9,0.3-1.9,0-2.8
			c-0.3-0.9-0.7-1.6-1.5-2.2c-1.2-1-2.5-2-3.9-3c-0.7-0.6-1.3-1.2-1.7-1.9c-0.7-1.2-0.3-1.5-1-2.3c-0.7-1-1.3-0.6-4.6-2.2
			c-0.7-0.3-1.3-0.6-1.9-1c-0.7-0.6-0.9-1-1.5-1c-0.4,0-0.7,0.3-0.9,0.7c-0.1,0.7,0.4,1.3,1.2,2.2c0.3,0.4,1,1.6,2.3,4.1
			c1.2,2,1.5,2.9,1.9,3.9c1,1.7,2.5,3.6,6.8,5.4c-2.2-0.3-4.5-0.6-7.1-1c-11.3-1.9-19.7-4.1-21.2-4.5c-18-4.9-23.5-8.4-26.4-10.6
			c-2.2-1.6-4.2-3.3-6.1-5.2c-5.1-5.4-5.2-8.7-9-13.7c-2.3-2.9-5.4-4.9-11.3-9c-7.8-5.2-11.9-8-17.4-8.3c-0.3,0-0.4,0-0.6,0
			c-0.9,0-1.2,0.3-8.6,0.7c-6.5,0.4-18.3,1.7-23.4,2.3c-2.8,0.3-4.4,0.3-6,0.3c-2.5,0-4.6-0.3-10.7-0.3c-1.3,0-2.6,0-3.6,0
			c-4.8,0-6.7,0.1-8.6,0.1c-0.9,0-1.7,0-2.8-0.1c-3-0.3-5.1-3.2-9-6.1C-74.2-2.3-76.4-3.7-87-5C-90-5.9-93.2-6.2-96.3-6.2L-96.3-6.2
			z"/>
	</g>
</g>
</svg>
