<svg xmlns="http://www.w3.org/2000/svg" viewBox="0 0 300 150"><defs><style>.cls-1{fill:#151515;}</style></defs><g id="hoof"><path class="cls-1" d="M257.46,68.11c2.13,0,3.43-.23,3.72-1,.18-.48-.28-1.05-.87-2.41a10.39,10.39,0,0,0-1.65-3,25,25,0,0,0-3.24-3.4,21.15,21.15,0,0,0-2.34-2c-.68-.42-1.78-.75-1.52-1.66a1.6,1.6,0,0,1,.78-1c.9-.43,2.07.35,2.95,1a17.3,17.3,0,0,1,4.15,4.24c.66.9,1.41,2.05,1.74,1.91s-.05-.84.43-1.39a1.35,1.35,0,0,1,1.3-.43,1.56,1.56,0,0,1,.95.95c.38.83.05,1.28,0,2.69a11.13,11.13,0,0,0,.61,3.63c.22.83.34,1,.52,1.13.86.6,2.92-.26,3.38-1.56.24-.71-.21-1-.09-2.25.06-.73.17-1.89,1-2.25a1.64,1.64,0,0,1,1.82.43c.52.62.17,1.46.43,1.56s1-1.1,2.43-3a9.62,9.62,0,0,1,2.6-2.77c1.13-.76,1.68-.67,1.9-.61a2,2,0,0,1,1.3,1.47c.22.88-1.32,1.51-1.73,1.93-1.6,1.64-2.26,3.12-3.55,4.67-1.69,2-2.77,3.74-3.73,4.14a8.63,8.63,0,0,0-2.85,1.39c-.39.33-1.66,1.41-1.56,2.68.06.86.71,1.38,1.47,2.08a21.9,21.9,0,0,1,3.64,4.07c1.5,2.55.06,3.9,1.82,6.93.13.24.85,1.38,1.59,3,1,2.09,1.1,1.9,1.72,3.15s1.1,2.16,1.6,3.22a5,5,0,0,0,1.65,1.77c.85.68,1,.64,1.26,1.6.37,1.22.15.83-.08,1.53-.31.92,0,.52-.62,1.25s-.18.73-1.13,1a2.76,2.76,0,0,1-1.43.07c-1.09-.25-2.95-2.13-3.12-2.36-1.57-2.12-6.94-4.85-17.21-13.41a6.44,6.44,0,0,1-2.25-3c-.14-.44-.11-.55-.35-1.38a8.54,8.54,0,0,0-1.12-2.78,6.05,6.05,0,0,0-1.82-1.64,7.44,7.44,0,0,0-2.26-1c-3.45-.87-6.2-2.66-15.93-4.94-9.92-2.32-10.06-1.17-15.86-2.51a8.88,8.88,0,0,0-4.67,0,9.4,9.4,0,0,0-3.38,1.9C208.74,72.49,208,73.1,208,74a2.27,2.27,0,0,0,.69,1.47,2.78,2.78,0,0,0,1.39.7c1.45.28,7.44,4.2,13.16,9.09a83.26,83.26,0,0,1,15.68,17.15c2.88,4.37,4.32,6.55,4.59,7.11.9,1.78,3.27,6.86,5.2,8a3.62,3.62,0,0,1,1.21,1,3.14,3.14,0,0,1,.7,1.73c0,.77-.21,2-1,2.34a2.55,2.55,0,0,1-1.91-.44,3.24,3.24,0,0,1-.78-.52,4.18,4.18,0,0,1-.95-1.47,19.71,19.71,0,0,0-1.21-1.9c-6.51-10.33-10-15.16-10-15.16-1.33-1.86-5.33-5.95-13.34-14.12A5.83,5.83,0,0,0,218,87.24a1.44,1.44,0,0,0-1.13.35,1.53,1.53,0,0,0-.08,1.39,2.35,2.35,0,0,0,.86,1,30.27,30.27,0,0,1,4.33,4.07c4.42,4.44,5.53,6.52,14.73,19,2.16,2.94,3.27,6.65,5.8,9.27a2,2,0,0,1,.61,1.22,1.27,1.27,0,0,1-.26,1c-.31.35-.87.32-2,.26-.74,0-1-.13-1.13-.26a1.62,1.62,0,0,1-.52-.87c-.32-1.29-7.94-14.57-17.24-24.69-5.54-6-9-8-11-11a13.27,13.27,0,0,0-4-3.9,8,8,0,0,0-1.49-.78c-2.18-.82-3.12.08-5.65-.39a6.5,6.5,0,0,1-3.25-1.36,7,7,0,0,1-1.89-2.86c-.7-1.79-.28-2.43-1-3.51a4.77,4.77,0,0,0-2.66-1.82c-4.33-1.51-10.86-1-11.63-1-7.58.6-11.36.9-13.78,1.43a77.55,77.55,0,0,0-9.22,2.86A57.27,57.27,0,0,1,129.94,79c-6.32-1.06-12.91-2.17-18.06-6.63-2.19-1.89-4.51-3.23-9.16-5.91A8.69,8.69,0,0,0,97.65,65,9.35,9.35,0,0,0,94,66.24a13.8,13.8,0,0,0-3.12,2.4c-1,1-1.08,1.5-1.88,1.89s-1.41.29-2.86.26c-1.24,0-2.47.1-3.71.08-5-.06-25.44,4.2-30.57,7.19-.39.23-3.1,1.85-4.68,1.65a2.93,2.93,0,0,0-1.3.08,2.86,2.86,0,0,0-1.21.78c-2.26,2.29-2.71,1.3-10,9.71a50.27,50.27,0,0,0-3.46,4.24,28.51,28.51,0,0,0-3.55,6.84,19.14,19.14,0,0,1-.95,2.43,3.89,3.89,0,0,1-1,1.56,2.29,2.29,0,0,1-2.08.6,1.88,1.88,0,0,1-1-1,3,3,0,0,1-.17-1.64,5.58,5.58,0,0,1,.17-1.22c.31-1,1-1.08,1.91-2.16a15,15,0,0,0,1.65-2.86c.43-.86.47-1,.86-1.73.6-1.06.83-1.21,1.21-1.91a17.43,17.43,0,0,0,1-2.77A6.42,6.42,0,0,1,32,88c.28-.18,5.61-3.76,7.88-8.57a13.49,13.49,0,0,1,2.86-3.73A2.29,2.29,0,0,1,44.18,75c.47,0,.64.21,1.22.43a4.57,4.57,0,0,0,2.68.18c.7-.19.8-.47,1.73-1a11.69,11.69,0,0,1,2.69-1.13c.33-.11,11.44-3.73,15.33-5.2a3.06,3.06,0,0,0,1.91-1.56,1.88,1.88,0,0,0-.26-1.9c-.42-.42-1.11-.47-2.51-.17a25.64,25.64,0,0,0-5.72,2.25,27.72,27.72,0,0,1-4,1.38c-2.63.68-2.57.12-8.66.61-2.45.2-4.2.42-5.2-.43a1.55,1.55,0,0,0-1.21-.52,1.42,1.42,0,0,0-.87.78c-.68,1.23-2.84,2.2-13.77,13.77-3.13,3.31-4.69,5-4.76,5.11a4.25,4.25,0,0,1-1.91,2.08c-.07,0-1.29.59-1.82.09-.13-.13-.21-.31-.26-1.39a8.8,8.8,0,0,1,0-1.73c.22-.68.71-.74,2.25-1.91,1.75-1.32,1.88-1.8,1.91-2,.1-.54-.14-.78,0-1.56a4.35,4.35,0,0,1,.52-1.3c.93-1.51,4.88-3.51,5.37-3.77a17.93,17.93,0,0,0,6.89-6.75,25.24,25.24,0,0,1,3.38-5.2,4.08,4.08,0,0,1,1.82-1.3,4.67,4.67,0,0,1,3.11.26c2.87,1,3.29-.25,11.18-.13a9.56,9.56,0,0,0,3.12-.39A9.69,9.69,0,0,0,61,61.3c1.94-1.28,2.34-.9,6.62-2.73,3.22-1.38,4.85-2.09,6.11-3.38a15.59,15.59,0,0,0,2.47-3.76c2.23-4.11,1.59-4.92,3.12-6.24a24.26,24.26,0,0,1,4.67-2.6c1.08-.53,2.08-1,2.21-1.82a1.91,1.91,0,0,0-.78-1.69c-1.12-.87-2.35.13-5.19.26a10,10,0,0,1-5.46-1C74,37.9,74.37,38,72,36.09a23.75,23.75,0,0,0-3.51-2.47c-1.81-1-2.74-1-2.73-1.3,0-.6,3.66-1.8,6.76-.52,2.72,1.13,2.46,3.11,5.2,4.16,1,.37,2.73.25,6.23,0s5.43-.4,6.76-1c2-1,2.43-2.08,4.16-3.63,2.52-2.27,5.08-3,9.35-4.16A44.24,44.24,0,0,1,124,25.57c7.28.88,8.84,1.84,12,4.16,2.7,2,4.12,3.91,6.23,4.15,2.78.32,3.28-.13,10.4,0,6.82.13,6.45.47,11.43,0,3.47-.32,11.65-1.24,16.12-1.56,5.83-.41,5.14-.59,6.23-.52,3.84.25,6.6,2.08,12,5.72,4.12,2.8,6.18,4.2,7.79,6.24,2.66,3.35,2.77,5.62,6.24,9.35a27.25,27.25,0,0,0,4.16,3.64c2,1.47,5.75,3.9,18.19,7.28,1,.28,6.77,1.82,14.55,3.12,1.83.3,3.48.54,4.93.71-3-1.21-4-2.51-4.67-3.7-.33-.64-.52-1.27-1.3-2.66-.94-1.7-1.42-2.54-1.62-2.8-.45-.55-.93-1-.78-1.49a.72.72,0,0,1,.58-.46c.35,0,.54.34,1,.72a5.92,5.92,0,0,0,1.3.71c2.23,1.06,2.7.84,3.18,1.5s.13.78.65,1.62a5.54,5.54,0,0,0,1.24,1.3,30.35,30.35,0,0,1,2.66,2.08,3.58,3.58,0,0,1,1,1.5A3.7,3.7,0,0,1,257.46,68.11Z"/></g></svg>